<svg width="15" height="15" viewBox="0 0 15 15" fill="none" xmlns="http://www.w3.org/2000/svg">
<path fill-rule="evenodd" clip-rule="evenodd" d="M7.50079 0.833252C5.69021 0.833252 5.46297 0.841169 4.75188 0.873512C4.04214 0.906012 3.55766 1.01836 3.13381 1.18325C2.69532 1.35351 2.32339 1.58127 1.95282 1.952C1.58199 2.32252 1.35417 2.6945 1.18334 3.13284C1.01808 3.55685 0.905579 4.04143 0.873652 4.75091C0.841829 5.462 0.833496 5.6894 0.833496 7.49997C0.833496 9.31054 0.841569 9.53705 0.873757 10.2482C0.906413 10.9579 1.01876 11.4424 1.1835 11.8663C1.35391 12.3047 1.58167 12.6767 1.9524 13.0473C2.32282 13.4181 2.69475 13.6464 3.13297 13.8167C3.55714 13.9815 4.04172 14.0939 4.75131 14.1264C5.46245 14.1588 5.68954 14.1667 7.49995 14.1667C9.31068 14.1667 9.53719 14.1588 10.2483 14.1264C10.958 14.0939 11.443 13.9815 11.8672 13.8167C12.3056 13.6464 12.6769 13.4181 13.0473 13.0473C13.4182 12.6767 13.646 12.3047 13.8168 11.8664C13.9807 11.4424 14.0932 10.9578 14.1266 10.2483C14.1585 9.53721 14.1668 9.31054 14.1668 7.49997C14.1668 5.6894 14.1585 5.46216 14.1266 4.75106C14.0932 4.04132 13.9807 3.55685 13.8168 3.13299C13.646 2.6945 13.4182 2.32252 13.0473 1.952C12.6765 1.58117 12.3057 1.35336 11.8668 1.18325C11.4418 1.01836 10.9571 0.906012 10.2473 0.873512C9.5362 0.841169 9.30985 0.833252 7.4987 0.833252H7.50079ZM7.27844 2.03455H7.2786L7.50079 2.03461C9.28079 2.03461 9.49177 2.04101 10.1947 2.07294C10.8447 2.10268 11.1975 2.21127 11.4325 2.30252C11.7436 2.42336 11.9654 2.56784 12.1986 2.80117C12.4319 3.0345 12.5764 3.25674 12.6975 3.56783C12.7888 3.80257 12.8975 4.15534 12.9271 4.80534C12.959 5.50815 12.966 5.71924 12.966 7.49846C12.966 9.27763 12.959 9.48872 12.9271 10.1915C12.8973 10.8415 12.7888 11.1943 12.6975 11.429C12.5767 11.7401 12.4319 11.9617 12.1986 12.1949C11.9653 12.4282 11.7438 12.5727 11.4325 12.6935C11.1978 12.7852 10.8447 12.8935 10.1947 12.9232C9.49193 12.9552 9.28079 12.9621 7.50079 12.9621C5.72063 12.9621 5.50964 12.9552 4.80688 12.9232C4.15688 12.8932 3.80407 12.7846 3.56896 12.6934C3.25782 12.5725 3.03558 12.428 2.80225 12.1947C2.56891 11.9614 2.42449 11.7397 2.30339 11.4285C2.21214 11.1938 2.10339 10.841 2.07381 10.191C2.04183 9.4882 2.03548 9.27705 2.03548 7.49679C2.03548 5.71648 2.04183 5.50648 2.07381 4.80367C2.1035 4.15367 2.21214 3.80091 2.30339 3.56591C2.42422 3.25476 2.56891 3.03257 2.80225 2.79924C3.03558 2.56591 3.25782 2.42143 3.56896 2.30034C3.80396 2.20867 4.15688 2.10034 4.80688 2.07044C5.42188 2.04268 5.66021 2.03435 6.90271 2.03294V2.03461C7.01881 2.03445 7.1437 2.0345 7.27844 2.03455ZM10.2594 3.94132C10.2594 3.4995 10.6178 3.14159 11.0594 3.14159V3.14132C11.5011 3.14132 11.8594 3.49966 11.8594 3.94132C11.8594 4.38299 11.5011 4.74132 11.0594 4.74132C10.6178 4.74132 10.2594 4.38299 10.2594 3.94132ZM7.50063 4.07632C5.61001 4.07638 4.07714 5.60929 4.07714 7.49997C4.07714 9.3907 5.61006 10.9229 7.50079 10.9229C9.39151 10.9229 10.9239 9.3907 10.9239 7.49997C10.9239 5.60924 9.39136 4.07632 7.50063 4.07632ZM9.72303 7.49997C9.72303 6.27257 8.72803 5.27773 7.50079 5.27773C6.27339 5.27773 5.27855 6.27257 5.27855 7.49997C5.27855 8.72721 6.27339 9.72221 7.50079 9.72221C8.72803 9.72221 9.72303 8.72721 9.72303 7.49997Z" fill="white"/>
</svg>
