<svg width="15" height="11" viewBox="0 0 15 11" fill="none" xmlns="http://www.w3.org/2000/svg">
<path d="M14.8187 0.732503C14.708 0.680941 14.5777 0.698929 14.4855 0.777679C12.2024 2.71309 9.28863 5.19389 8.37188 6.01997C7.85733 6.48445 7.14322 6.48445 6.62748 6.01936C5.65031 5.13893 2.3782 2.35725 0.514512 0.77765C0.421729 0.6989 0.291123 0.681527 0.18126 0.732474C0.0708105 0.783773 0 0.894251 0 1.01601V8.8749C0 9.56431 0.560596 10.1249 1.25001 10.1249H13.75C14.4394 10.1249 15 9.56431 15 8.8749V1.01601C15 0.894251 14.9292 0.78348 14.8187 0.732503Z" fill="white"/>
</svg>
