<svg xmlns="http://www.w3.org/2000/svg" width="15" height="13" fill="none"><path d="M.313 1.788c2.059 1.743 5.671 4.81 6.733 5.767.142.13.295.195.454.195a.672.672 0 0 0 .453-.194c1.063-.957 4.675-4.025 6.734-5.768a.312.312 0 0 0 .044-.431 1.241 1.241 0 0 0-.981-.482H1.25a1.24 1.24 0 0 0-.98.482.312.312 0 0 0 .043.43Z" fill="#fff"/><path d="M14.819 2.732a.311.311 0 0 0-.334.046C12.203 4.713 9.29 7.194 8.372 8.02c-.515.464-1.229.464-1.745 0C5.65 7.138 2.378 4.356.515 2.777A.313.313 0 0 0 0 3.016v7.859c0 .69.56 1.25 1.25 1.25h12.5c.69 0 1.25-.56 1.25-1.25V3.016a.312.312 0 0 0-.181-.284Z" fill="#fff"/></svg>
