<svg width="14" height="11" viewBox="0 0 14 11" fill="none" xmlns="http://www.w3.org/2000/svg">
<path d="M7.09568 2.97306L7.12403 3.44022L6.65186 3.38301C4.93326 3.16375 3.43183 2.42012 2.15698 1.17126L1.53379 0.551611L1.37325 1.0092C1.03327 2.0293 1.25046 3.10654 1.9587 3.83104C2.33642 4.23149 2.25142 4.28869 1.59988 4.05036C1.37325 3.97409 1.17491 3.91688 1.15607 3.94545C1.08998 4.01222 1.31661 4.87971 1.49599 5.22295C1.74152 5.69961 2.24197 6.16671 2.78968 6.44318L3.25239 6.66244L2.70469 6.672C2.17588 6.672 2.15698 6.68151 2.21368 6.8817C2.40251 7.50135 3.1485 8.1592 3.97948 8.44517L4.56499 8.64536L4.05503 8.95041C3.29959 9.38899 2.41196 9.63683 1.52434 9.6559C1.09937 9.66546 0.75 9.70354 0.75 9.73217C0.75 9.82751 1.90206 10.3614 2.5725 10.5711C4.58383 11.1907 6.97294 10.9238 8.76709 9.86565C10.0419 9.11252 11.3167 7.61576 11.9116 6.16671C12.2327 5.39451 12.5537 3.98359 12.5537 3.30674C12.5537 2.86821 12.582 2.811 13.1108 2.2867C13.4225 1.9816 13.7152 1.64792 13.7719 1.55264C13.8663 1.37151 13.8569 1.37151 13.3753 1.53357C12.5726 1.81954 12.4593 1.7814 12.8559 1.35244C13.1486 1.04734 13.498 0.494404 13.498 0.332348C13.498 0.303773 13.3564 0.351417 13.1958 0.437198C13.0259 0.532542 12.6482 0.675529 12.3648 0.761367L11.8549 0.923423L11.3922 0.608817C11.1373 0.437199 10.7784 0.246567 10.5896 0.189361C10.108 0.0558795 9.37144 0.0749485 8.93708 0.227498C7.75667 0.656517 7.01068 1.76234 7.09568 2.97306Z" fill="white"/>
</svg>
